inDegrees=yes
name=ik_lifting_orientations
DataType=double
version=3
OpenSimVersion=4.5-2024-01-10-34fd6af
endheader
time	pelvis_tilt	pelvis_list	pelvis_rotation	pelvis_tx	pelvis_ty	pelvis_tz	hip_flexion_r	hip_adduction_r	hip_rotation_r	knee_angle_r	knee_angle_r_beta	ankle_angle_r	subtalar_angle_r	mtp_angle_r	hip_flexion_l	hip_adduction_l	hip_rotation_l	knee_angle_l	knee_angle_l_beta	ankle_angle_l	subtalar_angle_l	mtp_angle_l	lumbar_extension	lumbar_bending	lumbar_rotation	arm_flex_r	arm_add_r	arm_rot_r	elbow_flex_r	pro_sup_r	wrist_flex_r	wrist_dev_r	arm_flex_l	arm_add_l	arm_rot_l	elbow_flex_l	pro_sup_l	wrist_flex_l	wrist_dev_l
0.02	-0.002518652806173382	-0.001232048238404034	-90.2602816808122	0	0.9399999998679526	0	45.00227019893568	-11.40325238796824	0	59.74247113989334	1.042702824668829	-5.571984532196047	0	0	45.00227019893568	-11.40325238796824	0	59.74247113989334	1.042702824668829	-5.571984532196047	0	0	-0.002635783820235776	0.0009589245747519313	-0.00158226156154129	-0.2914356484692504	-0.06819260245876532	-0.008123956338960694	0.610586226458348	3.275999749427487	0	0	0	-9.548926753475753	0	86.76982355895956	3.275999749427487	0	0
0.03	0.002058703361979618	-0.001380380106327536	-90.44760026653903	0	0.9399999998679526	0	45.00226986763978	-11.40255048761099	0	59.74250113756417	1.042703348226953	-5.571613145864282	0	0	45.00226986763978	-11.40255048761099	0	59.74250113756417	1.042703348226953	-5.571613145864282	0	0	0.009713557126763415	0.005567086865918417	0.1112777420399683	-0.1964641806726639	-0.06672627382989549	0.06780090903825096	0.4956970433068086	3.275664599898168	0	0	0	-9.549339823030126	0	86.77015399185973	3.275664599898168	0	0
0.04	-0.001209698158662619	-0.007805526051836525	-90.51145971918992	0	0.9399999998679526	0	45.00217337128816	-11.21809921036315	0	59.7511623340793	1.042854514623304	-5.478314706317686	0	0	45.00217337128816	-11.21809921036315	0	59.7511623340793	1.042854514623304	-5.478314706317686	0	0	-0.008973767989135394	0.004012023456469217	0.1884742080259152	-0.1178619412535425	-0.04494952194198733	0.09629498713871382	0.4516003239663461	3.177202927689751	0	0	0	-9.671103131876174	0	86.86723023461961	3.177202927689751	0	0
0.05	-0.01501228406145552	0.005214463163614893	-90.62999068755776	0	0.9399999998679526	0	45.00212132483149	-11.12864630018513	0	59.75588169295836	1.042936882974327	-5.43481714440208	0	0	45.00212132483149	-11.12864630018513	0	59.75588169295836	1.042936882974327	-5.43481714440208	0	0	0.04000413213437495	0.02244030860212714	0.3056257217107533	-0.2244539101614816	-0.04818268921988141	0.169181436631986	0.5847281873992963	3.123334376293055	0	0	0	-9.738307389580521	0	86.92034098635385	3.123334376293055	0	0
0.06	-0.05539266140660943	-0.004206148230765965	-90.63675078962078	0	0.9399999998679526	0	45.00207121349354	-11.04638192834998	0	59.7604472417247	1.04301656683246	-5.395477759358154	0	0	45.00207121349354	-11.04638192834998	0	59.7604472417247	1.04301656683246	-5.395477759358154	0	0	-0.006135694512728234	0.05815194288514971	0.3103791030689833	-0.07133745750786168	-0.02689356960802486	0.1792686713509101	0.4108594138311781	3.071142613375684	0	0	0	-9.803672338616135	0	86.97179860355648	3.071142613375684	0	0
0.07000000000000001	-0.06278023656026491	-0.01443563430839896	-90.69300534744178	0	0.9399999998679526	0	45.00201553050514	-10.9608454442232	0	59.76555167961572	1.043105656080122	-5.355559189520467	0	0	45.00201553050514	-10.9608454442232	0	59.76555167961572	1.043105656080122	-5.355559189520467	0	0	-0.01913944103955145	0.06396606062360219	0.3690967669003947	-0.03062188642163455	-0.05566534486677952	0.1827904589582852	0.3954875801847608	3.012622639576048	0	0	0	-9.877370958068468	0	87.02949552567023	3.012622639576048	0	0
0.08	-0.06226160408987482	-0.01661288363486453	-90.7517893681151	0	0.9399999998679526	0	45.00197944713923	-10.90868046098897	0	59.76888037101561	1.043163752704832	-5.331709832773162	0	0	45.00197944713923	-10.90868046098897	0	59.76888037101561	1.043163752704832	-5.331709832773162	0	0	-0.02448377132653874	0.06511907341017031	0.3677239437517056	-0.02226392372654323	-0.03697022661530124	0.3029987968467021	0.4054308158762977	2.974367678066243	0	0	0	-9.925811618274361	0	87.06721251544303	2.974367678066243	0	0
0.09	-0.06326830394853	-0.01425757982751893	-90.78128912758359	0	0.9399999998679526	0	45.00193858644519	-10.85262830472261	0	59.77266922700009	1.043229880716645	-5.306566874773165	0	0	45.00193858644519	-10.85262830472261	0	59.77266922700009	1.043229880716645	-5.306566874773165	0	0	-0.01591432623931822	0.06870276854722367	0.3983806723810506	0.01282260683785836	-0.03689597466929008	0.3020603774000072	0.3798375296908568	2.930733480768815	0	0	0	-9.981311325039767	0	87.11023315220544	2.930733480768815	0	0
0.1	-0.0667499395208708	-0.02549568224656798	-90.79828933851697	0	0.9399999998679526	0	45.00193834625594	-10.85225824860088	0	59.77269130942916	1.04323026612774	-5.306393316133009	0	0	45.00193834625594	-10.85225824860088	0	59.77269130942916	1.04323026612774	-5.306393316133009	0	0	-0.01569562841359061	0.07456241872581838	0.4611782893589924	-0.03348521399087231	-0.002289129847573926	0.2508265646528333	0.3553973559859899	2.930480741102922	0	0	0	-9.981629976360015	0	87.11048233723204	2.930480741102922	0	0
0.11	-0.06706608563554792	-0.01954558409105631	-90.80874392354966	0	0.9399999998679526	0	45.0018935685633	-10.7913596008873	0	59.77684630623786	1.043302784502461	-5.279188725106733	0	0	45.0018935685633	-10.7913596008873	0	59.77684630623786	1.043302784502461	-5.279188725106733	0	0	-0.02228059208380325	0.06611226940762593	0.4894932917374847	0.0471111547685546	0.00479493930622898	0.3069196504674914	0.3391569365329756	2.882617400263114	0	0	0	-10.04254400826612	0	87.1576726547151	2.882617400263114	0	0
0.12	-0.06157040173459122	-0.02970210274218749	-90.86535694328477	0	0.9399999998679526	0	45.00189335628141	-10.79104891425205	0	59.77686591990997	1.043303126825618	-5.279045756935793	0	0	45.00189335628141	-10.79104891425205	0	59.77686591990997	1.043303126825618	-5.279045756935793	0	0	-0.01510565723960084	0.06891062660185078	0.532617111016197	0.01618481132854629	-0.001028829124997075	0.3472443015586748	0.3358708561636346	2.882392475472117	0	0	0	-10.04282879883133	0	87.15789441636241	2.882392475472117	0	0
0.13	-0.06386172343889333	-0.006192071510120621	-91.00335147670826	0	0.9399999998679526	0	45.00189294678702	-10.79045051087158	0	59.77690380381828	1.043303788024551	-5.278770468631979	0	0	45.00189294678702	-10.79045051087158	0	59.77690380381828	1.043303788024551	-5.278770468631979	0	0	-0.06508075466328568	0.07244461708055638	0.67011158522281	0.1033297794080714	0.009610797717613685	0.360779163575943	0.3283416212937365	2.881958372318915	0	0	0	-10.04337868730227	0	87.15832241470623	2.881958372318915	0	0
0.14	-0.06692688108520047	-0.009548671582942954	-91.12452666706062	0	0.9399999998679526	0	45.00189241271758	-10.78966908770959	0	59.7769531402749	1.043304649108161	-5.278410951461885	0	0	45.00189241271758	-10.78966908770959	0	59.7769531402749	1.043304649108161	-5.278410951461885	0	0	-0.07582940523316946	0.06813090796681893	0.8035566408388364	0.1209709952013414	0.01500779401801058	0.3647144331971653	0.3259181489337857	2.881392494846962	0	0	0	-10.04409517355512	0	87.15888033418119	2.881392494846962	0	0
0.15	-0.06608100362609722	-0.006814107190820418	-91.25652272078565	0	0.9399999998679526	0	45.00189196584141	-10.78901625198813	0	59.77699445268089	1.043305370145667	-5.278110732542757	0	0	45.00189196584141	-10.78901625198813	0	59.77699445268089	1.043305370145667	-5.278110732542757	0	0	-0.07333782007047875	0.06949687432106469	0.9876511655936142	0.1142057645577869	0.02239017604994827	0.3416354972117685	0.3244361168818478	2.88091884066725	0	0	0	-10.04469505383414	0	87.15934732733515	2.88091884066725	0	0
0.16	-0.06708190371427093	-0.01266746075673592	-91.37196031283149	0	0.9399999998679526	0	45.00189156273253	-10.78842771250562	0	59.77703172403687	1.043306020653546	-5.277840144201193	0	0	45.00189156273253	-10.78842771250562	0	59.77703172403687	1.043306020653546	-5.277840144201193	0	0	-0.07642494209761107	0.06908507894754282	1.100037631287404	0.06801544440035445	0.05586049528026032	0.3715461840220491	0.3412429385130725	2.880491534304681	0	0	0	-10.04523627328615	0	87.1597686244715	2.880491534304681	0	0
